<svg xmlns="http://www.w3.org/2000/svg" xmlns:xlink="http://www.w3.org/1999/xlink" x="0px" y="0px" width="305.697px"
     height="48.061px" viewBox="0 0 305.697 48.061" enable-background="new 0 0 305.697 48.061" xml:space="preserve"> <g> <path
    fill="#FF5072" d="M67.054,45.181H62.67c0.012,0.665,0.229,1.285,0.596,1.722c0.322,0.378,0.769,0.608,1.389,0.608
 c0.506,0,0.942-0.183,1.252-0.505c0.206-0.218,0.366-0.47,0.435-0.815h0.596c-0.08,0.494-0.321,0.896-0.642,1.205
 c-0.413,0.414-0.987,0.665-1.642,0.665c-0.826,0-1.411-0.343-1.825-0.814c-0.47-0.551-0.734-1.308-0.734-2.181
 c0-0.723,0.115-1.435,0.562-2.042c0.482-0.655,1.148-0.999,1.951-0.999c1.55,0,2.456,1.331,2.456,2.777
 C67.065,44.94,67.054,45.043,67.054,45.181z M64.609,42.565c-1.182,0-1.928,0.952-1.928,2.088h3.799
 C66.457,43.563,65.78,42.565,64.609,42.565z"></path>
    <path fill="#FF5072" d="M71.862,48.061c-0.781,0-1.584-0.321-2.146-0.883c-0.872-0.883-0.952-2.18-0.952-3.34
 c0-1.158,0.081-2.443,0.952-3.328c0.562-0.562,1.365-0.883,2.146-0.883c1.619,0,2.765,1.136,2.892,2.64h-0.62
 c-0.102-1.205-0.986-2.054-2.271-2.054c-0.724,0-1.274,0.251-1.71,0.699c-0.735,0.758-0.769,1.952-0.769,2.927
 c0,0.976,0.045,2.181,0.78,2.938c0.448,0.459,1.021,0.7,1.699,0.7c1.285,0,2.169-0.849,2.271-2.055h0.62
 C74.627,46.925,73.481,48.061,71.862,48.061z"></path>
    <path fill="#FF5072" d="M80.513,47.373c-0.401,0.402-0.964,0.688-1.675,0.688c-0.712,0-1.274-0.286-1.677-0.688
 c-0.595-0.597-0.814-1.354-0.814-2.33c0-0.975,0.219-1.733,0.814-2.33c0.403-0.401,0.965-0.688,1.677-0.688
 c0.711,0,1.274,0.287,1.675,0.688c0.597,0.597,0.815,1.355,0.815,2.33C81.328,46.019,81.111,46.776,80.513,47.373z M80.101,43.092
 c-0.299-0.309-0.712-0.505-1.262-0.505c-0.552,0-0.964,0.195-1.263,0.505c-0.516,0.539-0.643,1.205-0.643,1.951
 c0,0.747,0.127,1.412,0.643,1.952c0.299,0.31,0.711,0.505,1.263,0.505c0.55,0,0.964-0.195,1.262-0.505
 c0.516-0.54,0.643-1.205,0.643-1.952C80.744,44.297,80.617,43.631,80.101,43.092z"></path>
    <path fill="#FF5072" d="M90.877,47.913V44.16c0-0.999-0.369-1.595-1.367-1.595c-0.436,0-0.758,0.149-1.02,0.389
 c-0.448,0.425-0.678,1.022-0.678,1.711v3.248h-0.584V44.16c0-0.999-0.379-1.595-1.378-1.595c-0.436,0-0.769,0.149-1.021,0.389
 c-0.516,0.483-0.688,1.275-0.688,2.089v2.87h-0.574v-5.739h0.505l0.069,0.987c0.299-0.653,0.918-1.136,1.745-1.136
 c0.998,0,1.584,0.494,1.813,1.239c0.299-0.711,0.907-1.239,1.848-1.239c1.342,0,1.905,0.872,1.905,2.1v3.788H90.877z"></path>
    <path fill="#FF5072" d="M101.376,47.913V44.16c0-0.999-0.367-1.595-1.365-1.595c-0.436,0-0.758,0.149-1.022,0.389
 c-0.446,0.425-0.677,1.022-0.677,1.711v3.248h-0.586V44.16c0-0.999-0.378-1.595-1.376-1.595c-0.437,0-0.769,0.149-1.021,0.389
 c-0.516,0.483-0.689,1.275-0.689,2.089v2.87h-0.574v-5.739h0.505l0.069,0.987c0.299-0.653,0.918-1.136,1.744-1.136
 c0.998,0,1.583,0.494,1.813,1.239c0.299-0.711,0.906-1.239,1.849-1.239c1.342,0,1.904,0.872,1.904,2.1v3.788H101.376z"></path>
    <path fill="#FF5072" d="M109.029,45.181h-4.384c0.012,0.665,0.231,1.285,0.597,1.722c0.321,0.378,0.768,0.608,1.389,0.608
 c0.504,0,0.941-0.183,1.251-0.505c0.206-0.218,0.367-0.47,0.436-0.815h0.597c-0.081,0.494-0.321,0.896-0.643,1.205
 c-0.414,0.414-0.987,0.665-1.641,0.665c-0.827,0-1.412-0.343-1.826-0.814c-0.471-0.551-0.734-1.308-0.734-2.181
 c0-0.723,0.115-1.435,0.562-2.042c0.482-0.655,1.147-0.999,1.952-0.999c1.548,0,2.456,1.331,2.456,2.777
 C109.041,44.94,109.029,45.043,109.029,45.181z M106.585,42.565c-1.182,0-1.928,0.952-1.928,2.088h3.799
 C108.432,43.563,107.755,42.565,106.585,42.565z"></path>
    <path fill="#FF5072" d="M113.607,42.668c-1.434,0-1.824,1.286-1.824,2.491v2.754h-0.574v-5.739h0.505l0.069,1.159
 c0.252-0.792,1.02-1.216,1.824-1.216c0.184,0,0.38,0,0.563,0.035v0.574C113.987,42.68,113.791,42.668,113.607,42.668z"></path>
    <path fill="#FF5072" d="M117.829,48.061c-0.712,0-1.285-0.274-1.686-0.677c-0.597-0.596-0.804-1.365-0.804-2.341
 c0-0.975,0.208-1.744,0.804-2.341c0.401-0.402,0.973-0.677,1.686-0.677c1.194,0,2.078,0.781,2.216,1.94h-0.597
 c-0.126-0.792-0.746-1.377-1.618-1.377c-0.55,0-0.975,0.183-1.273,0.493c-0.516,0.54-0.631,1.216-0.631,1.963
 c0,0.747,0.115,1.435,0.631,1.974c0.299,0.31,0.723,0.482,1.273,0.482c0.884,0,1.493-0.621,1.63-1.401h0.608
 C119.918,47.213,119.035,48.061,117.829,48.061z"></path>
    <path fill="#FF5072" d="M126.632,45.181h-4.384c0.01,0.665,0.228,1.285,0.597,1.722c0.321,0.378,0.768,0.608,1.388,0.608
 c0.505,0,0.942-0.183,1.251-0.505c0.207-0.218,0.367-0.47,0.436-0.815h0.597c-0.081,0.494-0.321,0.896-0.643,1.205
 c-0.413,0.414-0.987,0.665-1.641,0.665c-0.826,0-1.411-0.343-1.826-0.814c-0.47-0.551-0.733-1.308-0.733-2.181
 c0-0.723,0.113-1.435,0.561-2.042c0.484-0.655,1.149-0.999,1.952-0.999c1.55,0,2.456,1.331,2.456,2.777
 C126.643,44.94,126.632,45.043,126.632,45.181z M124.187,42.565c-1.182,0-1.928,0.952-1.928,2.088h3.799
 C126.034,43.563,125.357,42.565,124.187,42.565z"></path>
    <path fill="#FF5072" d="M135.444,47.373c-0.413,0.459-1.102,0.688-1.86,0.688c-0.781,0-1.445-0.24-1.882-0.733
 c-0.322-0.368-0.459-0.69-0.482-1.159h0.585c0.035,0.343,0.184,0.642,0.425,0.883c0.333,0.322,0.802,0.459,1.354,0.459
 c0.596,0,1.066-0.138,1.355-0.424c0.206-0.208,0.309-0.402,0.309-0.736c0-0.515-0.367-0.952-1.055-1.043l-1.114-0.149
 c-0.471-0.058-0.976-0.207-1.298-0.575c-0.206-0.241-0.321-0.539-0.321-0.907c0-0.459,0.194-0.837,0.493-1.113
 c0.414-0.379,0.977-0.54,1.573-0.54c0.689,0,1.342,0.218,1.733,0.677c0.263,0.31,0.424,0.689,0.435,1.055h-0.573
 c-0.022-0.183-0.103-0.47-0.287-0.688c-0.264-0.31-0.711-0.505-1.308-0.505c-0.447,0-0.781,0.08-1.033,0.264
 c-0.287,0.206-0.448,0.482-0.448,0.792c0,0.482,0.241,0.849,1.113,0.964l1.09,0.15c1.08,0.149,1.585,0.883,1.585,1.584
 C135.834,46.742,135.696,47.087,135.444,47.373z"></path>
    <path fill="#FF5072" d="M141.744,47.373c-0.401,0.402-0.964,0.688-1.675,0.688c-0.711,0-1.273-0.286-1.676-0.688
 c-0.597-0.597-0.814-1.354-0.814-2.33c0-0.975,0.217-1.733,0.814-2.33c0.403-0.401,0.965-0.688,1.676-0.688
 c0.711,0,1.274,0.287,1.675,0.688c0.597,0.597,0.815,1.355,0.815,2.33C142.559,46.019,142.34,46.776,141.744,47.373z
 M141.33,43.092c-0.298-0.309-0.711-0.505-1.261-0.505c-0.55,0-0.964,0.195-1.263,0.505c-0.517,0.539-0.643,1.205-0.643,1.951
 c0,0.747,0.126,1.412,0.643,1.952c0.299,0.31,0.712,0.505,1.263,0.505c0.55,0,0.964-0.195,1.261-0.505
 c0.517-0.54,0.644-1.205,0.644-1.952C141.973,44.297,141.847,43.631,141.33,43.092z"></path>
    <path fill="#FF5072" d="M145.908,47.981c-0.735,0-1.148-0.38-1.148-1.217v-6.989h0.574v6.967c0,0.39,0.114,0.688,0.597,0.688
 c0.229,0,0.332,0,0.493-0.022v0.505C146.299,47.947,146.149,47.981,145.908,47.981z"></path>
    <path fill="#FF5072" d="M152.37,47.901l-0.069-1.044c-0.321,0.734-1.136,1.193-1.939,1.193c-1.321,0-2.021-0.815-2.021-2.1v-3.789
 h0.574v3.754c0,0.998,0.436,1.572,1.48,1.572c1.412,0,1.905-1.216,1.905-2.456v-2.87h0.574v5.738H152.37z"></path>
    <path fill="#FF5072" d="M157.372,47.993c-1.067,0-1.48-0.677-1.48-1.675v-3.615h-1.148v-0.528h1.148V40.59l0.574-0.138v1.722h1.779
 v0.528h-1.779v3.593c0,0.676,0.184,1.159,0.953,1.159c0.31,0,0.597-0.046,0.907-0.103v0.505
 C158.003,47.924,157.693,47.993,157.372,47.993z"></path>
    <path fill="#FF5072"
          d="M160.263,40.579v-0.804h0.803v0.804H160.263z M160.366,47.913v-5.739h0.609v5.739H160.366z"></path>
    <path fill="#FF5072" d="M167.424,47.373c-0.402,0.402-0.964,0.688-1.675,0.688c-0.713,0-1.275-0.286-1.676-0.688
 c-0.596-0.597-0.815-1.354-0.815-2.33c0-0.975,0.219-1.733,0.815-2.33c0.401-0.401,0.963-0.688,1.676-0.688
 c0.711,0,1.273,0.287,1.675,0.688c0.597,0.597,0.815,1.355,0.815,2.33C168.239,46.019,168.021,46.776,167.424,47.373z
 M167.011,43.092c-0.298-0.309-0.712-0.505-1.262-0.505c-0.552,0-0.965,0.195-1.263,0.505c-0.516,0.539-0.643,1.205-0.643,1.951
 c0,0.747,0.126,1.412,0.643,1.952c0.298,0.31,0.711,0.505,1.263,0.505c0.55,0,0.964-0.195,1.262-0.505
 c0.516-0.54,0.643-1.205,0.643-1.952C167.654,44.297,167.528,43.631,167.011,43.092z"></path>
    <path fill="#FF5072" d="M174.436,47.913V44.16c0-0.999-0.437-1.573-1.481-1.573c-1.411,0-1.906,1.217-1.906,2.456v2.87h-0.573
 v-5.739h0.503l0.07,1.045c0.321-0.724,1.137-1.193,1.939-1.193c1.321,0,2.021,0.815,2.021,2.1v3.788H174.436z"></path>
    <path fill="#FF5072" d="M181.333,47.373c-0.414,0.459-1.102,0.688-1.859,0.688c-0.782,0-1.447-0.24-1.883-0.733
 c-0.321-0.368-0.459-0.69-0.482-1.159h0.585c0.034,0.343,0.184,0.642,0.425,0.883c0.332,0.322,0.803,0.459,1.355,0.459
 c0.596,0,1.067-0.138,1.353-0.424c0.207-0.208,0.311-0.402,0.311-0.736c0-0.515-0.368-0.952-1.057-1.043l-1.113-0.149
 c-0.47-0.058-0.976-0.207-1.296-0.575c-0.206-0.241-0.322-0.539-0.322-0.907c0-0.459,0.195-0.837,0.494-1.113
 c0.413-0.379,0.974-0.54,1.571-0.54c0.688,0,1.343,0.218,1.733,0.677c0.264,0.31,0.424,0.689,0.435,1.055h-0.573
 c-0.023-0.183-0.104-0.47-0.288-0.688c-0.264-0.31-0.711-0.505-1.308-0.505c-0.448,0-0.78,0.08-1.032,0.264
 c-0.288,0.206-0.448,0.482-0.448,0.792c0,0.482,0.241,0.849,1.114,0.964l1.09,0.15c1.078,0.149,1.583,0.883,1.583,1.584
 C181.722,46.742,181.584,47.087,181.333,47.373z"></path>
    <path fill="#000" d="M81.162,25.052V16.6c0-0.503,0.411-0.913,0.886-0.913c0.501,0,0.912,0.41,0.912,0.913v8.339
 c0,3.43,1.839,5.361,4.863,5.361c2.929,0,4.791-1.772,4.791-5.248V16.6c0-0.503,0.411-0.913,0.911-0.913
 c0.477,0,0.887,0.41,0.887,0.913v8.315c0,4.635-2.659,7.047-6.636,7.047C83.844,31.961,81.162,29.55,81.162,25.052z"></path>
    <path fill="#000" d="M99.573,16.71c0-0.498,0.407-0.907,0.883-0.907h5.955c1.955,0,3.522,0.589,4.523,1.591
 c0.772,0.771,1.226,1.886,1.226,3.136v0.047c0,2.613-1.769,4.134-4.249,4.613l3.954,5.087c0.182,0.206,0.296,0.411,0.296,0.662
 c0,0.476-0.454,0.885-0.907,0.885c-0.365,0-0.634-0.204-0.842-0.476l-4.476-5.82h-4.568v5.388c0,0.499-0.408,0.908-0.91,0.908
 c-0.476,0-0.883-0.409-0.883-0.908V16.71z M106.251,23.916c2.39,0,4.093-1.229,4.093-3.272v-0.046c0-1.957-1.501-3.135-4.069-3.135
 h-4.908v6.452H106.251z"></path>
    <path fill="#000" d="M116.206,23.803v-0.047c0-4.386,3.296-8.225,8.136-8.225c4.843,0,8.091,3.794,8.091,8.181v0.045
 c0,4.386-3.294,8.227-8.134,8.227C119.458,31.984,116.206,28.188,116.206,23.803z M130.57,23.803v-0.047
 c0-3.612-2.636-6.568-6.271-6.568c-3.637,0-6.23,2.908-6.23,6.523v0.045c0,3.612,2.639,6.569,6.273,6.569
 C127.979,30.325,130.57,27.416,130.57,23.803z"></path>
    <path fill="#000" d="M137.137,16.71c0-0.498,0.409-0.907,0.887-0.907h5.952c1.957,0,3.524,0.589,4.524,1.591
 c0.773,0.771,1.227,1.886,1.227,3.136v0.047c0,2.613-1.77,4.134-4.25,4.613l3.956,5.087c0.182,0.206,0.294,0.411,0.294,0.662
 c0,0.476-0.454,0.885-0.905,0.885c-0.366,0-0.638-0.204-0.844-0.476l-4.477-5.82h-4.568v5.388c0,0.499-0.408,0.908-0.909,0.908
 c-0.478,0-0.887-0.409-0.887-0.908V16.71z M143.817,23.916c2.39,0,4.092-1.229,4.092-3.272v-0.046c0-1.957-1.498-3.135-4.066-3.135
 h-4.91v6.452H143.817z"></path>
    <path fill="#000" d="M198.612,16.71c0-0.498,0.411-0.907,0.885-0.907h5.955c1.955,0,3.525,0.589,4.523,1.591
 c0.773,0.771,1.227,1.886,1.227,3.136v0.047c0,2.613-1.774,4.134-4.251,4.613l3.955,5.087c0.182,0.206,0.296,0.411,0.296,0.662
 c0,0.476-0.454,0.885-0.911,0.885c-0.362,0-0.634-0.204-0.839-0.476l-4.477-5.82h-4.569v5.388c0,0.499-0.408,0.908-0.91,0.908
 c-0.474,0-0.885-0.409-0.885-0.908V16.71z M205.295,23.916c2.385,0,4.09-1.229,4.09-3.272v-0.046c0-1.957-1.5-3.135-4.069-3.135
 h-4.908v6.452H205.295"></path>
    <path fill="#000" d="M215.953,30.803V16.71c0-0.498,0.408-0.907,0.886-0.907h9.887c0.453,0,0.818,0.363,0.818,0.818
 c0,0.454-0.365,0.818-0.818,0.818h-8.976v5.432h7.953c0.453,0,0.818,0.386,0.818,0.818c0,0.454-0.365,0.818-0.818,0.818h-7.953
 v5.569h9.087c0.455,0,0.818,0.363,0.818,0.819c0,0.453-0.363,0.819-0.818,0.819h-9.998
 C216.36,31.713,215.953,31.302,215.953,30.803z"></path>
    <path fill="#000" d="M253.064,17.463h-4.614c-0.452,0-0.841-0.366-0.841-0.82c0-0.455,0.389-0.841,0.841-0.841h11.047
 c0.453,0,0.84,0.386,0.84,0.841c0,0.454-0.387,0.82-0.84,0.82h-4.614v13.452c0,0.499-0.409,0.908-0.91,0.908
 c-0.501,0-0.909-0.409-0.909-0.908V17.463z"></path>
    <path fill="#000" d="M264.654,16.6c0-0.503,0.409-0.913,0.888-0.913c0.498,0,0.907,0.41,0.907,0.913v14.316
 c0,0.499-0.409,0.908-0.907,0.908c-0.479,0-0.888-0.409-0.888-0.908V16.6z"></path>
    <path fill="#000" d="M271.312,23.803v-0.047c0-4.386,3.295-8.225,8.135-8.225c4.84,0,8.091,3.794,8.091,8.181v0.045
 c0,4.386-3.293,8.227-8.136,8.227C274.562,31.984,271.312,28.188,271.312,23.803z M285.676,23.803v-0.047
 c0-3.612-2.636-6.568-6.273-6.568c-3.636,0-6.227,2.908-6.227,6.523v0.045c0,3.612,2.637,6.569,6.272,6.569
 C283.084,30.325,285.676,27.416,285.676,23.803z"></path>
    <path fill="#000" d="M292.243,16.62c0-0.478,0.407-0.885,0.886-0.885h0.252c0.409,0,0.656,0.203,0.907,0.522l9.66,12.316V16.572
 c0-0.476,0.385-0.886,0.885-0.886c0.476,0,0.865,0.41,0.865,0.886v14.366c0,0.476-0.342,0.841-0.816,0.841h-0.093
 c-0.387,0-0.66-0.228-0.931-0.547l-9.864-12.613v12.318c0,0.476-0.387,0.885-0.888,0.885c-0.476,0-0.863-0.409-0.863-0.885V16.62z"></path>
    <g> <path fill="#000" d="M77.46,30.507l-5.186-11.322c-0.12-0.261-0.381-0.428-0.668-0.427c-0.287,0.001-0.548,0.17-0.665,0.432
 c-0.015,0.033-0.03,0.066-0.045,0.099c-0.125,0.279-0.125,0.598,0,0.877l2.563,5.705H68.5c-0.339,0-0.645,0.198-0.785,0.507
 c-0.112,0.248-0.09,0.535,0.058,0.763c0.148,0.228,0.401,0.367,0.672,0.367h5.721l1.658,3.659c0.16,0.364,0.453,0.658,0.884,0.658
 c0.479,0,0.863-0.384,0.863-0.863C77.572,30.827,77.528,30.666,77.46,30.507z"></path>
        <path fill="#000" d="M70.362,16.524c0.493-0.986-1.049-1.636-1.525-0.487L62.21,30.53c-0.091,0.18-0.113,0.34-0.113,0.477
 c0,0.453,0.362,0.817,0.818,0.817c0.41,0,0.704-0.226,0.865-0.614C63.808,31.137,67.011,23.863,70.362,16.524z"></path> </g>
    <path fill="#000" d="M192.82,19.002c0.136,0.091,0.343,0.204,0.591,0.204c0.479,0,0.91-0.409,0.91-0.886
 c0-0.316-0.182-0.568-0.364-0.727c-1.125-0.934-2.341-1.643-3.989-1.93c-0.211-0.037-0.428,0.022-0.592,0.16
 c-0.164,0.138-0.26,0.341-0.26,0.556v0.067c0,0.439,0.301,0.819,0.727,0.921C191.009,17.646,191.953,18.234,192.82,19.002z"></path>
    <path fill="#000" d="M193.545,28.138c-0.229,0-0.433,0.113-0.57,0.251c-1.362,1.249-2.746,1.931-4.726,1.931
 c-3.499,0-6.158-2.885-6.158-6.567v-0.046c0-3.067,1.852-5.576,4.528-6.306c0.412-0.113,0.699-0.487,0.699-0.915v-0.092
 c0-0.209-0.095-0.407-0.257-0.538c-0.163-0.131-0.376-0.181-0.58-0.137c-3.725,0.812-6.254,4.131-6.254,8.033v0.045
 c0,4.569,3.388,8.181,7.977,8.181c2.615,0,4.341-0.91,5.912-2.341c0.156-0.135,0.294-0.363,0.294-0.637
 C194.409,28.548,193.998,28.138,193.545,28.138z"></path>
    <path fill="#000" d="M153.502,30.53l6.453-14.114c0.229-0.501,0.569-0.796,1.136-0.796h0.09c0.549,0,0.912,0.295,1.114,0.796
 l6.457,14.091c0.068,0.158,0.113,0.316,0.113,0.452c0,0.48-0.386,0.865-0.865,0.865c-0.431,0-0.727-0.293-0.886-0.659l-1.657-3.66
 h-8.732l-1.657,3.705c-0.16,0.387-0.455,0.614-0.865,0.614c-0.454,0-0.82-0.364-0.82-0.817
 C153.385,30.87,153.411,30.71,153.502,30.53z M164.751,25.87l-3.661-8.136l-3.659,8.136H164.751z"></path>
    <path fill="#000" d="M231.111,30.53l6.453-14.114c0.227-0.501,0.569-0.796,1.137-0.796h0.089c0.545,0,0.909,0.295,1.114,0.796
 l6.456,14.091c0.068,0.158,0.113,0.316,0.113,0.452c0,0.48-0.386,0.865-0.864,0.865c-0.432,0-0.727-0.293-0.886-0.659l-1.66-3.66
 h-8.725l-1.661,3.705c-0.158,0.387-0.454,0.614-0.862,0.614c-0.456,0-0.82-0.364-0.82-0.817
 C230.996,30.87,231.02,30.71,231.111,30.53z M242.358,25.87l-3.657-8.136l-3.659,8.136H242.358z"></path>
    <path fill="#000" d="M24.652,9.475c-0.726-0.313-1.57,0.021-1.884,0.747c-3.471,8.033-9.623,22.287-9.65,22.351v0.001l0,0
 c-0.312,0.726,0.021,1.569,0.748,1.882c0.725,0.314,1.569-0.02,1.883-0.747c0,0,6.17-14.299,9.649-22.35
 C25.712,10.633,25.378,9.79,24.652,9.475z"></path>
    <path fill="#000" d="M20.89,27.862c0,0.791,0.641,1.432,1.432,1.432h8.231l1.906,4.416c0.234,0.542,0.761,0.866,1.316,0.866
 c0.19,0,0.382-0.038,0.567-0.118c0.727-0.313,1.062-1.156,0.748-1.883l-5.194-12.036c-0.313-0.727-1.156-1.061-1.883-0.748
 c-0.725,0.314-1.061,1.156-0.747,1.883l2.051,4.756h-6.995C21.531,26.429,20.89,27.07,20.89,27.862z"></path>
    <path fill="#9850FF" d="M27.869,2.843c6.861,1.224,12.688,5.756,15.585,12.122c0.24,0.528,0.761,0.84,1.305,0.84
 c0.198,0,0.4-0.042,0.592-0.129c0.72-0.328,1.038-1.178,0.71-1.898c-3.287-7.224-9.9-12.366-17.69-13.756
 c-0.777-0.139-1.523,0.379-1.662,1.158C26.571,1.96,27.089,2.704,27.869,2.843z"></path>
    <path fill="#FF8548" d="M12.973,5.661c0.673-0.415,0.883-1.299,0.467-1.972c-0.414-0.673-1.297-0.883-1.97-0.467
 C4.287,7.65,0,15.327,0,23.755c0,7.608,3.655,14.856,9.777,19.387c0.257,0.191,0.556,0.281,0.852,0.281
 c0.439,0,0.872-0.2,1.152-0.58c0.471-0.636,0.337-1.534-0.299-2.004c-5.396-3.995-8.618-10.381-8.618-17.085
 C2.865,16.328,6.643,9.564,12.973,5.661z"></path>
    <path fill="#FF5072" d="M45.348,31.838c-0.721-0.328-1.57-0.01-1.897,0.711c-3.443,7.562-11.035,12.448-19.344,12.448
 c-1.936,0-3.855-0.26-5.704-0.774c-0.762-0.212-1.552,0.234-1.763,0.996c-0.212,0.763,0.234,1.552,0.996,1.765
 c2.099,0.583,4.275,0.879,6.471,0.879c9.429,0,18.044-5.546,21.951-14.127C46.386,33.015,46.069,32.166,45.348,31.838z"></path> </g> </svg>
